<svg width="35" height="39" viewBox="0 0 35 39" fill="none" xmlns="http://www.w3.org/2000/svg">
<path d="M34.0242 29.7815C33.4185 31.1031 32.7014 32.3195 31.8703 33.4382C30.7378 34.9628 29.8104 36.0181 29.0958 36.6044C27.9879 37.5663 26.8009 38.0589 25.5298 38.087C24.6173 38.087 23.5168 37.842 22.2359 37.3446C20.9507 36.8494 19.7696 36.6044 18.6897 36.6044C17.5571 36.6044 16.3424 36.8494 15.0431 37.3446C13.7418 37.842 12.6936 38.101 11.8921 38.1268C10.6732 38.1756 9.45823 37.6689 8.24548 36.6044C7.47146 35.9668 6.50333 34.8739 5.34349 33.326C4.09913 31.6728 3.0761 29.7558 2.2746 27.5703C1.41625 25.2096 0.985962 22.9237 0.985962 20.7106C0.985962 18.1755 1.56612 15.989 2.72814 14.1568C3.6414 12.6851 4.85634 11.5241 6.37695 10.6719C7.89756 9.8196 9.54057 9.38527 11.3099 9.35749C12.2781 9.35749 13.5477 9.64027 15.1254 10.196C16.6987 10.7536 17.7089 11.0363 18.1518 11.0363C18.4829 11.0363 19.6052 10.7057 21.5076 10.0466C23.3066 9.43527 24.825 9.18215 26.0689 9.28185C29.4395 9.53869 31.9718 10.7933 33.6557 13.0535C30.6413 14.7781 29.1502 17.1937 29.1798 20.2924C29.207 22.706 30.1344 24.7146 31.957 26.3094C32.7827 27.0496 33.7053 27.6216 34.7315 28.0279C34.5092 28.6373 34.2739 29.2211 34.0242 29.7815ZM26.2939 1.05901C26.2939 2.95083 25.5619 4.71722 24.1029 6.35217C22.3422 8.29578 20.2125 9.41892 17.903 9.2417C17.8736 9.01474 17.8565 8.77586 17.8565 8.52484C17.8565 6.70872 18.6939 4.76507 20.1809 3.1759C20.9232 2.37127 21.8674 1.70223 23.0123 1.16852C24.1548 0.642782 25.2355 0.352035 26.2519 0.302246C26.2815 0.555152 26.2939 0.808074 26.2939 1.05899V1.05901Z" fill="black"/>
</svg>
