<svg width="50" height="39" viewBox="0 0 50 39" fill="none" xmlns="http://www.w3.org/2000/svg">
<g opacity="0.6">
<path d="M41.7469 26.9662C47.0625 23.3237 50 19.1964 50 19.1964C50 19.1964 40.625 5.9989 25 5.9989C21.9987 6.00684 19.0314 6.48703 16.2812 7.40984L18.6875 9.25989C20.7107 8.69397 22.8467 8.40248 25 8.39845C31.625 8.39845 37.1219 11.2011 41.15 14.2942C43.0886 15.7907 44.8265 17.4331 46.3375 19.1964C46.1562 19.4052 45.9563 19.6356 45.7281 19.8875C44.6813 21.0393 43.1344 22.575 41.15 24.0987C40.6344 24.4947 40.0969 24.8858 39.5344 25.2649L41.7469 26.9662Z" fill="#635C5C" fill-opacity="0.6"/>
<path d="M35.3031 22.0183C36.0005 20.5206 36.1296 18.9017 35.6755 17.3498C35.2214 15.798 34.2028 14.377 32.7381 13.2523C31.2734 12.1276 29.4228 11.3455 27.4018 10.9968C25.3808 10.6481 23.2724 10.7473 21.3219 11.2827L23.8938 13.2576C25.0947 13.1256 26.3192 13.2102 27.4702 13.5046C28.6212 13.7991 29.6671 14.2954 30.525 14.9541C31.3828 15.6128 32.0291 16.4159 32.4126 17.2997C32.7961 18.1835 32.9063 19.1237 32.7344 20.0459L35.3031 22.0183ZM26.1063 25.1353L28.675 27.1078C26.7245 27.6433 24.6161 27.7424 22.5951 27.3937C20.574 27.0451 18.7235 26.2629 17.2588 25.1382C15.7941 24.0135 14.7754 22.5926 14.3214 21.0407C13.8673 19.4888 13.9964 17.8699 14.6938 16.3722L17.2656 18.347C17.0937 19.2692 17.2039 20.2094 17.5874 21.0932C17.9709 21.977 18.6172 22.7801 19.475 23.4388C20.3329 24.0976 21.3788 24.5938 22.5298 24.8883C23.6808 25.1828 24.9053 25.2673 26.1063 25.1353Z" fill="#635C5C" fill-opacity="0.6"/>
<path d="M10.4688 13.1255C9.90625 13.5095 9.36563 13.8982 8.85 14.2941C6.91139 15.7907 5.1735 17.433 3.6625 19.1964L4.27187 19.8875C5.31875 21.0393 6.86562 22.575 8.85 24.0987C12.8781 27.1917 18.3781 29.9944 25 29.9944C27.2375 29.9944 29.3438 29.6753 31.3125 29.1306L33.7188 30.983C30.9686 31.9058 28.0013 32.386 25 32.394C9.375 32.394 0 19.1964 0 19.1964C0 19.1964 2.93438 15.0668 8.25313 11.4267L10.4656 13.1279L10.4688 13.1255ZM42.6437 34.4432L5.14375 5.64853L7.35625 3.94965L44.8563 32.7443L42.6437 34.4432Z" fill="#635C5C" fill-opacity="0.6"/>
</g>
</svg>
