<svg width="41" height="39" viewBox="0 0 41 39" fill="none" xmlns="http://www.w3.org/2000/svg">
<path d="M20.5376 38.13C31.6006 38.13 40.5689 29.662 40.5689 19.2161C40.5689 8.77027 31.6006 0.302246 20.5376 0.302246C9.47457 0.302246 0.506226 8.77027 0.506226 19.2161C0.506226 29.662 9.47457 38.13 20.5376 38.13Z" fill="#1977F3"/>
<path d="M28.3349 24.6848L29.2223 19.2162H23.6672V15.668C23.6672 14.1732 24.4419 12.713 26.9321 12.713H29.4589V8.05831C29.4589 8.05831 27.1659 7.6886 24.9743 7.6886C20.3996 7.6886 17.408 10.3058 17.408 15.0483V19.2162H12.3206V24.6848H17.408V37.9013C18.4277 38.0529 19.4728 38.1301 20.5376 38.1301C21.6024 38.1301 22.6475 38.0503 23.6672 37.9013V24.6848H28.3349Z" fill="white"/>
</svg>
