<svg width="93" height="85" viewBox="0 0 93 85" fill="none" xmlns="http://www.w3.org/2000/svg">
<rect width="93" height="85" fill="white"/>
<path d="M13.048 26.36V53H9.772V26.36H13.048ZM27.2354 53.324C25.3874 53.324 23.7074 52.904 22.1954 52.064C20.7074 51.224 19.5314 50.036 18.6674 48.5C17.8274 46.94 17.4074 45.14 17.4074 43.1C17.4074 41.084 17.8394 39.308 18.7034 37.772C19.5914 36.212 20.7914 35.024 22.3034 34.208C23.8154 33.368 25.5074 32.948 27.3794 32.948C29.2514 32.948 30.9434 33.368 32.4554 34.208C33.9674 35.024 35.1554 36.2 36.0194 37.736C36.9074 39.272 37.3514 41.06 37.3514 43.1C37.3514 45.14 36.8954 46.94 35.9834 48.5C35.0954 50.036 33.8834 51.224 32.3474 52.064C30.8114 52.904 29.1074 53.324 27.2354 53.324ZM27.2354 50.444C28.4114 50.444 29.5154 50.168 30.5474 49.616C31.5794 49.064 32.4074 48.236 33.0314 47.132C33.6794 46.028 34.0034 44.684 34.0034 43.1C34.0034 41.516 33.6914 40.172 33.0674 39.068C32.4434 37.964 31.6274 37.148 30.6194 36.62C29.6114 36.068 28.5194 35.792 27.3434 35.792C26.1434 35.792 25.0394 36.068 24.0314 36.62C23.0474 37.148 22.2554 37.964 21.6554 39.068C21.0554 40.172 20.7554 41.516 20.7554 43.1C20.7554 44.708 21.0434 46.064 21.6194 47.168C22.2194 48.272 23.0114 49.1 23.9954 49.652C24.9794 50.18 26.0594 50.444 27.2354 50.444ZM49.7947 32.948C51.4987 32.948 52.9867 33.32 54.2587 34.064C55.5547 34.808 56.5147 35.744 57.1387 36.872V33.272H60.4507V53.432C60.4507 55.232 60.0667 56.828 59.2987 58.22C58.5307 59.636 57.4267 60.74 55.9867 61.532C54.5707 62.324 52.9147 62.72 51.0187 62.72C48.4267 62.72 46.2667 62.108 44.5387 60.884C42.8107 59.66 41.7907 57.992 41.4787 55.88H44.7187C45.0787 57.08 45.8227 58.04 46.9507 58.76C48.0787 59.504 49.4347 59.876 51.0187 59.876C52.8187 59.876 54.2827 59.312 55.4107 58.184C56.5627 57.056 57.1387 55.472 57.1387 53.432V49.292C56.4907 50.444 55.5307 51.404 54.2587 52.172C52.9867 52.94 51.4987 53.324 49.7947 53.324C48.0427 53.324 46.4467 52.892 45.0067 52.028C43.5907 51.164 42.4747 49.952 41.6587 48.392C40.8427 46.832 40.4347 45.056 40.4347 43.064C40.4347 41.048 40.8427 39.284 41.6587 37.772C42.4747 36.236 43.5907 35.048 45.0067 34.208C46.4467 33.368 48.0427 32.948 49.7947 32.948ZM57.1387 43.1C57.1387 41.612 56.8387 40.316 56.2387 39.212C55.6387 38.108 54.8227 37.268 53.7907 36.692C52.7827 36.092 51.6667 35.792 50.4427 35.792C49.2187 35.792 48.1027 36.08 47.0947 36.656C46.0867 37.232 45.2827 38.072 44.6827 39.176C44.0827 40.28 43.7827 41.576 43.7827 43.064C43.7827 44.576 44.0827 45.896 44.6827 47.024C45.2827 48.128 46.0867 48.98 47.0947 49.58C48.1027 50.156 49.2187 50.444 50.4427 50.444C51.6667 50.444 52.7827 50.156 53.7907 49.58C54.8227 48.98 55.6387 48.128 56.2387 47.024C56.8387 45.896 57.1387 44.588 57.1387 43.1ZM74.5908 53.324C72.7428 53.324 71.0628 52.904 69.5508 52.064C68.0628 51.224 66.8868 50.036 66.0228 48.5C65.1828 46.94 64.7628 45.14 64.7628 43.1C64.7628 41.084 65.1948 39.308 66.0588 37.772C66.9468 36.212 68.1468 35.024 69.6588 34.208C71.1708 33.368 72.8628 32.948 74.7348 32.948C76.6068 32.948 78.2988 33.368 79.8108 34.208C81.3228 35.024 82.5108 36.2 83.3748 37.736C84.2628 39.272 84.7068 41.06 84.7068 43.1C84.7068 45.14 84.2508 46.94 83.3388 48.5C82.4508 50.036 81.2388 51.224 79.7028 52.064C78.1668 52.904 76.4628 53.324 74.5908 53.324ZM74.5908 50.444C75.7668 50.444 76.8708 50.168 77.9028 49.616C78.9348 49.064 79.7628 48.236 80.3868 47.132C81.0348 46.028 81.3588 44.684 81.3588 43.1C81.3588 41.516 81.0468 40.172 80.4228 39.068C79.7988 37.964 78.9828 37.148 77.9748 36.62C76.9668 36.068 75.8748 35.792 74.6988 35.792C73.4988 35.792 72.3948 36.068 71.3868 36.62C70.4028 37.148 69.6108 37.964 69.0108 39.068C68.4108 40.172 68.1108 41.516 68.1108 43.1C68.1108 44.708 68.3988 46.064 68.9748 47.168C69.5748 48.272 70.3668 49.1 71.3508 49.652C72.3348 50.18 73.4148 50.444 74.5908 50.444Z" fill="black"/>
</svg>
